<svg xmlns="http://www.w3.org/2000/svg" viewBox="0 0 333.03 70.99"><path fill="currentColor" d="M5.28 51.82V8.18h14.74c3.41 0 6.21.58 8.4 1.74 2.19 1.16 3.81 2.75 4.86 4.76 1.05 2.02 1.58 4.31 1.58 6.88s-.53 4.85-1.58 6.84c-1.05 1.99-2.66 3.55-4.84 4.68-2.17 1.13-4.95 1.69-8.33 1.69H8.18V30h11.76c2.33 0 4.21-.34 5.64-1.02 1.43-.68 2.46-1.65 3.11-2.91.65-1.26.97-2.76.97-4.51s-.33-3.27-.98-4.58c-.65-1.31-1.7-2.32-3.13-3.04-1.44-.72-3.33-1.08-5.69-1.08h-9.29v38.96H5.28zm20.54-19.6l10.74 19.6h-6.14l-10.57-19.6h5.97zM55.25 52.5c-3.15 0-5.87-.7-8.15-2.1-2.28-1.4-4.03-3.36-5.26-5.88S40 39.06 40 35.71s.61-6.31 1.84-8.87c1.23-2.56 2.95-4.57 5.16-6.01 2.21-1.44 4.79-2.16 7.75-2.16 1.7 0 3.39.28 5.05.85 1.66.57 3.17 1.49 4.54 2.76 1.36 1.27 2.45 2.95 3.26 5.04.81 2.09 1.21 4.66 1.21 7.71v2.13H43.58v-4.35h20.11c0-1.85-.37-3.49-1.1-4.94a8.454 8.454 0 00-3.11-3.43c-1.34-.84-2.92-1.26-4.74-1.26-2 0-3.73.49-5.19 1.48a9.837 9.837 0 00-3.36 3.85 11.3 11.3 0 00-1.17 5.07v2.9c0 2.47.43 4.56 1.29 6.27.86 1.71 2.06 3.01 3.59 3.9 1.53.89 3.32 1.33 5.35 1.33 1.32 0 2.52-.19 3.59-.56 1.07-.38 2-.94 2.78-1.7.78-.76 1.38-1.71 1.81-2.84l4.86 1.36c-.51 1.65-1.37 3.09-2.58 4.34-1.21 1.24-2.7 2.21-4.47 2.9-1.78.69-3.77 1.03-5.99 1.03zM80.66 8.18v43.64h-5.03V8.18h5.03zm10.89 5.46c-.98 0-1.82-.33-2.52-1s-1.05-1.47-1.05-2.41.35-1.74 1.05-2.41c.7-.67 1.54-1 2.52-1s1.82.33 2.52 1c.7.67 1.05 1.47 1.05 2.41s-.35 1.74-1.05 2.41-1.54 1-2.52 1zm-2.56 38.18V19.09h5.03v32.73h-5.03zm22.63.76c-2.07 0-3.96-.39-5.65-1.18-1.69-.79-3.03-1.93-4.03-3.43s-1.49-3.31-1.49-5.44c0-1.88.37-3.4 1.11-4.57.74-1.17 1.73-2.09 2.96-2.76s2.6-1.17 4.1-1.5c1.5-.33 3.01-.6 4.53-.8 1.99-.26 3.6-.45 4.85-.59 1.24-.13 2.15-.37 2.73-.69.58-.33.86-.9.86-1.7v-.17c0-2.1-.57-3.74-1.72-4.9-1.14-1.16-2.87-1.75-5.19-1.75s-4.28.53-5.65 1.58c-1.36 1.05-2.32 2.17-2.88 3.37l-4.77-1.7c.85-1.99 1.99-3.54 3.42-4.66 1.43-1.11 2.99-1.9 4.69-2.34 1.7-.45 3.37-.67 5.02-.67 1.05 0 2.26.12 3.63.37s2.7.76 3.98 1.52c1.29.77 2.35 1.93 3.21 3.47.85 1.55 1.28 3.62 1.28 6.22v21.56h-5.03v-4.43h-.26c-.34.71-.91 1.47-1.7 2.28s-1.85 1.5-3.17 2.07c-1.32.57-2.93.85-4.84.85zm.77-4.52c1.99 0 3.67-.39 5.04-1.17 1.37-.78 2.41-1.79 3.11-3.03s1.05-2.54 1.05-3.9v-4.6c-.21.26-.68.49-1.4.69-.72.21-1.54.38-2.47.53-.93.15-1.83.28-2.71.38s-1.58.2-2.12.27c-1.31.17-2.52.44-3.65.82-1.13.38-2.04.94-2.73 1.68s-1.03 1.76-1.03 3.04c0 1.75.65 3.06 1.95 3.95 1.3.89 2.95 1.33 4.95 1.33zm22.77 3.76V8.18h5.03v16.11h.43c.37-.57.88-1.3 1.54-2.18.66-.89 1.61-1.68 2.86-2.39 1.24-.7 2.93-1.05 5.06-1.05 2.76 0 5.18.69 7.29 2.07 2.1 1.38 3.74 3.33 4.92 5.86 1.18 2.53 1.77 5.51 1.77 8.95s-.59 6.47-1.77 9c-1.18 2.54-2.81 4.5-4.9 5.88-2.09 1.38-4.5 2.08-7.22 2.08-2.1 0-3.79-.35-5.05-1.05-1.26-.7-2.24-1.51-2.92-2.41-.68-.9-1.21-1.65-1.58-2.25h-.6v5.03h-4.86zm4.94-16.36c0 2.47.36 4.65 1.09 6.53.72 1.88 1.78 3.35 3.17 4.41s3.1 1.59 5.11 1.59 3.86-.56 5.27-1.67c1.41-1.11 2.48-2.62 3.2-4.52s1.08-4.01 1.08-6.34-.35-4.38-1.05-6.23c-.7-1.85-1.76-3.32-3.17-4.41-1.41-1.09-3.19-1.63-5.32-1.63s-3.76.52-5.16 1.54c-1.39 1.03-2.44 2.46-3.15 4.3-.71 1.84-1.07 3.98-1.07 6.42zm35.8-27.28v43.64h-5.03V8.18h5.03zm22.06 44.32c-3.15 0-5.87-.7-8.15-2.1-2.28-1.4-4.03-3.36-5.26-5.88s-1.84-5.46-1.84-8.81.61-6.31 1.84-8.87c1.23-2.56 2.95-4.57 5.16-6.01 2.21-1.44 4.79-2.16 7.75-2.16 1.7 0 3.39.28 5.05.85 1.66.57 3.17 1.49 4.54 2.76 1.36 1.27 2.45 2.95 3.26 5.04.81 2.09 1.21 4.66 1.21 7.71v2.13h-25.23v-4.35h20.11c0-1.85-.37-3.49-1.1-4.94a8.454 8.454 0 00-3.11-3.43c-1.34-.84-2.92-1.26-4.74-1.26-2 0-3.73.49-5.19 1.48a9.837 9.837 0 00-3.36 3.85 11.3 11.3 0 00-1.17 5.07v2.9c0 2.47.43 4.56 1.29 6.27.86 1.71 2.06 3.01 3.59 3.9 1.53.89 3.32 1.33 5.35 1.33 1.32 0 2.52-.19 3.59-.56 1.07-.38 2-.94 2.78-1.7.78-.76 1.38-1.71 1.81-2.84l4.86 1.36c-.51 1.65-1.37 3.09-2.58 4.34-1.21 1.24-2.7 2.21-4.47 2.9-1.78.69-3.77 1.03-5.99 1.03z"/><path class="cls-1" d="M315.55 34.18c-.77-.38-1.68-.56-2.74-.56h-5.54v8.31h5.39c1.84 0 3.19-.35 4.03-1.06s1.27-1.65 1.27-2.83c0-.87-.21-1.63-.63-2.29-.42-.66-1.01-1.18-1.78-1.56zm-.96-5.52a4 4 0 001.68-1.37c.41-.59.62-1.3.62-2.12 0-1.13-.4-2.04-1.2-2.73-.8-.69-1.93-1.04-3.4-1.04h-5.02v7.74h4.9c.91 0 1.71-.16 2.42-.48z"/><path class="cls-1" d="M315.44 1.63h-76.83c-9.71 0-17.58 7.87-17.58 17.58v24.83c0 9.71 7.87 17.58 17.58 17.58h76.83c9.71 0 17.58-7.87 17.58-17.58V19.22c0-9.71-7.87-17.58-17.58-17.58zm-52.15 45.7h-6.44l-5.96-20.45h-.24l-5.94 20.45h-6.44l-8.95-31.27h7.22l5.18 21.73h.26l5.71-21.73h6.18l5.7 21.77h.27l5.18-21.77h7.22l-8.95 31.27zm33.32 0h-21.13V16.06h21.07v5.45h-14.46v7.45h13.38v5.45h-13.38v7.47h14.52v5.45zm26.93-4.21c-.82 1.3-2.03 2.32-3.63 3.08s-3.57 1.13-5.91 1.13h-13.36V16.06h12.52c2.3 0 4.22.34 5.76 1.02s2.69 1.63 3.47 2.83c.77 1.21 1.16 2.59 1.16 4.16 0 1.22-.25 2.29-.73 3.21s-1.16 1.67-2.01 2.26c-.85.59-1.82 1-2.91 1.24v.31c1.19.05 2.31.39 3.35 1.01s1.89 1.49 2.54 2.6.98 2.44.98 3.98c0 1.66-.41 3.14-1.23 4.44z"/></svg>